<svg xmlns="http://www.w3.org/2000/svg" xmlns:xlink="http://www.w3.org/1999/xlink" width="500" zoomAndPan="magnify" viewBox="0 0 375 374.999991" height="500" preserveAspectRatio="xMidYMid meet" version="1.0"><defs><g/></defs><g fill="#0077ff" fill-opacity="1"><g transform="translate(29.115545, 251.748361)"><g><path d="M 67.109375 -125.203125 C 74.066406 -125.203125 80.941406 -124.410156 87.734375 -122.828125 C 94.535156 -121.242188 99.59375 -119.664062 102.90625 -118.09375 L 107.890625 -115.71875 L 94.140625 -88.203125 C 84.648438 -93.265625 75.640625 -95.796875 67.109375 -95.796875 C 62.367188 -95.796875 59.007812 -95.28125 57.03125 -94.25 C 55.050781 -93.226562 54.0625 -91.296875 54.0625 -88.453125 C 54.0625 -87.816406 54.140625 -87.179688 54.296875 -86.546875 C 54.453125 -85.921875 54.769531 -85.328125 55.25 -84.765625 C 55.726562 -84.210938 56.160156 -83.738281 56.546875 -83.34375 C 56.941406 -82.945312 57.613281 -82.507812 58.5625 -82.03125 C 59.519531 -81.5625 60.273438 -81.207031 60.828125 -80.96875 C 61.378906 -80.738281 62.285156 -80.382812 63.546875 -79.90625 C 64.816406 -79.4375 65.765625 -79.082031 66.390625 -78.84375 C 67.023438 -78.601562 68.09375 -78.242188 69.59375 -77.765625 C 71.09375 -77.296875 72.238281 -76.984375 73.03125 -76.828125 C 77.9375 -75.398438 82.207031 -73.816406 85.84375 -72.078125 C 89.476562 -70.347656 93.3125 -67.976562 97.34375 -64.96875 C 101.375 -61.96875 104.492188 -58.175781 106.703125 -53.59375 C 108.921875 -49.007812 110.03125 -43.789062 110.03125 -37.9375 C 110.03125 -10.269531 90.820312 3.5625 52.40625 3.5625 C 43.707031 3.5625 35.445312 2.21875 27.625 -0.46875 C 19.800781 -3.15625 14.148438 -5.84375 10.671875 -8.53125 L 5.453125 -12.8125 L 22.53125 -41.5 C 23.789062 -40.394531 25.445312 -39.085938 27.5 -37.578125 C 29.5625 -36.078125 33.28125 -34.019531 38.65625 -31.40625 C 44.03125 -28.800781 48.691406 -27.5 52.640625 -27.5 C 61.335938 -27.5 65.6875 -30.425781 65.6875 -36.28125 C 65.6875 -38.96875 64.578125 -41.0625 62.359375 -42.5625 C 60.148438 -44.0625 56.394531 -45.757812 51.09375 -47.65625 C 45.800781 -49.550781 41.65625 -51.289062 38.65625 -52.875 C 31.0625 -56.832031 25.050781 -61.300781 20.625 -66.28125 C 16.195312 -71.257812 13.984375 -77.859375 13.984375 -86.078125 C 13.984375 -98.410156 18.765625 -108.015625 28.328125 -114.890625 C 37.898438 -121.765625 50.828125 -125.203125 67.109375 -125.203125 Z M 67.109375 -125.203125 "/></g></g></g><g fill="#0077ff" fill-opacity="1"><g transform="translate(123.466427, 251.748361)"><g><path d="M 8.78125 29.875 L 43.15625 13.046875 C 49.476562 23.472656 60.460938 28.6875 76.109375 28.6875 C 83.390625 28.6875 90.148438 26.351562 96.390625 21.6875 C 102.628906 17.03125 105.75 9.878906 105.75 0.234375 L 105.75 -8.78125 C 98.320312 -0.550781 85.046875 3.5625 65.921875 3.5625 C 48.367188 3.5625 33.898438 -2.640625 22.515625 -15.046875 C 11.140625 -27.460938 5.453125 -42.679688 5.453125 -60.703125 C 5.453125 -78.722656 11.140625 -93.976562 22.515625 -106.46875 C 33.898438 -118.957031 48.367188 -125.203125 65.921875 -125.203125 C 81.566406 -125.203125 94.609375 -120.378906 105.046875 -110.734375 L 105.75 -110.734375 L 105.75 -121.640625 L 147.734375 -121.640625 L 147.734375 3.3125 C 147.734375 23.070312 141.171875 38.328125 128.046875 49.078125 C 114.921875 59.828125 97.609375 65.203125 76.109375 65.203125 C 41.335938 65.203125 18.894531 53.425781 8.78125 29.875 Z M 58.203125 -81.328125 C 52.753906 -75.953125 50.03125 -69.078125 50.03125 -60.703125 C 50.03125 -52.328125 52.640625 -45.488281 57.859375 -40.1875 C 63.078125 -34.894531 69.953125 -32.25 78.484375 -32.25 C 86.703125 -32.25 93.457031 -34.9375 98.75 -40.3125 C 104.050781 -45.6875 106.703125 -52.484375 106.703125 -60.703125 C 106.703125 -69.078125 103.972656 -75.953125 98.515625 -81.328125 C 93.066406 -86.703125 86.390625 -89.390625 78.484375 -89.390625 C 70.421875 -89.390625 63.660156 -86.703125 58.203125 -81.328125 Z M 58.203125 -81.328125 "/></g></g></g><g fill="#0077ff" fill-opacity="1"><g transform="translate(263.099356, 251.748361)"><g><path d="M 41.265625 -50.75 C 48.847656 -50.75 55.285156 -48.097656 60.578125 -42.796875 C 65.878906 -37.503906 68.53125 -31.0625 68.53125 -23.46875 C 68.53125 -16.039062 65.878906 -9.675781 60.578125 -4.375 C 55.285156 0.914062 48.847656 3.5625 41.265625 3.5625 C 33.828125 3.5625 27.460938 0.914062 22.171875 -4.375 C 16.878906 -9.675781 14.234375 -16.039062 14.234375 -23.46875 C 14.234375 -31.0625 16.878906 -37.503906 22.171875 -42.796875 C 27.460938 -48.097656 33.828125 -50.75 41.265625 -50.75 Z M 41.265625 -50.75 "/></g></g></g></svg>